<?xml version="1.0" standalone="no"?>
<!DOCTYPE svg PUBLIC "-//W3C//DTD SVG 20010904//EN"
 "http://www.w3.org/TR/2001/REC-SVG-20010904/DTD/svg10.dtd">
<svg version="1.0" xmlns="http://www.w3.org/2000/svg"
 width="16.000000pt" height="16.000000pt" viewBox="0 0 16.000000 16.000000"
 preserveAspectRatio="xMidYMid meet">
<metadata>
Created by potrace 1.11, written by Peter Selinger 2001-2013
</metadata>
<g transform="translate(0.000000,16.000000) scale(0.003125,-0.003125)"
fill="#000000" stroke="none">
<path d="M230 4305 l0 -115 -115 0 -115 0 0 -235 0 -235 115 0 115 0 0 -115 0
-115 120 0 120 0 0 350 0 350 230 0 230 0 0 -1395 0 -1395 115 0 115 0 0 -120
0 -120 120 0 120 0 0 1165 0 1165 115 0 115 0 0 115 0 115 350 0 350 0 0
-1280 0 -1280 115 0 115 0 0 -115 0 -115 115 0 115 0 0 1165 0 1165 120 0 120
0 0 115 0 115 345 0 345 0 0 -1280 0 -1280 120 0 120 0 0 -115 0 -115 465 0
465 0 0 115 0 115 115 0 115 0 0 350 0 350 -115 0 -115 0 0 -235 0 -235 -120
0 -120 0 0 -115 0 -115 -230 0 -230 0 0 1280 0 1280 -115 0 -115 0 0 115 0
115 -465 0 -465 0 0 -115 0 -115 -120 0 -120 0 0 115 0 115 -115 0 -115 0 0
120 0 120 -465 0 -465 0 0 -120 0 -120 -115 0 -115 0 0 235 0 235 -120 0 -120
0 0 115 0 115 -465 0 -465 0 0 -115z"/>
</g>
</svg>
